<?xml version="1.0" encoding="utf-8"?>
<!-- Generator: Adobe Illustrator 25.0.1, SVG Export Plug-In . SVG Version: 6.00 Build 0)  -->
<svg version="1.1" id="Camada_1" xmlns="http://www.w3.org/2000/svg" xmlns:xlink="http://www.w3.org/1999/xlink" x="0px" y="0px"
	 viewBox="0 0 328.33 328.33" style="enable-background:new 0 0 328.33 328.33;" xml:space="preserve">
<style type="text/css">
	.st0{fill:#FFFFFF;}
	.st1{fill:#B6222D;}
	.st2{fill:#74191F;}
	.st3{fill:#761B20;}
	.st4{fill:#B5292C;}
	.st5{fill:#8A2D31;}
	.st6{fill:#A7262F;}
	.st7{fill:#8C2427;}
	.st8{fill:#952E31;}
</style>
<circle class="st0" cx="164.16" cy="164.16" r="164.16"/>
<g>
	<polygon class="st1" points="93.32,70.6 151.89,47.47 253.29,114.27 188.91,181.87 253.29,272 140.62,229.35 93.95,280.86 	"/>
	<polygon class="st2" points="140.62,229.35 133.18,199.98 142.23,147.47 188.91,181.87 	"/>
	<polygon class="st3" points="151.89,47.47 138.61,104.01 166.38,124.53 253.29,114.27 	"/>
	<polygon class="st4" points="93.32,70.6 138.61,104.01 151.89,47.47 	"/>
	<polygon class="st5" points="121.31,147.47 142.23,147.47 167.2,124.76 93.32,70.6 	"/>
	<polygon class="st6" points="121.31,147.47 102.37,271.56 140.62,229.35 	"/>
	<polygon class="st7" points="167.2,203.22 253.29,272 188.91,181.87 	"/>
	<polygon class="st8" points="166.38,124.53 203.25,166.81 253.29,114.27 	"/>
</g>
</svg>
